<svg width="608" height="608" viewBox="0 0 608 608" fill="none" xmlns="http://www.w3.org/2000/svg">
<g clip-path="url(#clip0_47_3)">
<path d="M608 464.316C608 476.084 599.174 484.91 587.406 484.91H20.5935C8.82581 484.91 0 476.084 0 464.316V140.703C0 128.935 8.82581 120.11 20.5935 120.11H587.406C599.174 120.11 608 128.935 608 140.703V464.316Z" fill="#5C101A"/>
<path d="M608 464.316C608 476.084 599.174 484.91 587.406 484.91H20.5935C8.82581 484.91 0 476.084 0 464.316V140.703C0 128.935 8.82581 120.11 20.5935 120.11H587.406C599.174 120.11 608 128.935 608 140.703V464.316Z" fill="#971C2F"/>
<path d="M0 141.703C0 129.935 8.82581 121.11 20.5935 121.11H587.406C599.174 121.11 608 129.935 608 141.703V466.297C608 478.064 599.174 486.89 587.406 486.89" fill="#971C2F"/>
<path d="M608 145.626H0V264.284H608V145.626Z" fill="#474748"/>
<path d="M208.877 264.284H608V145.626H6.8645L208.877 264.284Z" fill="#121212"/>
<path d="M608 464.316C608 476.084 599.174 484.91 587.406 484.91H20.5935C8.82581 484.91 0 476.084 0 464.316" fill="#5C101A"/>
<path d="M587.406 485.91C599.174 485.91 608 477.084 608 465.316H553.084L587.406 485.91Z" fill="#5C101A"/>
<path d="M217.703 324.103C217.703 328.026 214.761 330.968 210.839 330.968H64.7226C60.8 330.968 57.8581 328.026 57.8581 324.103C57.8581 320.181 60.8 317.239 64.7226 317.239H210.839C214.761 317.239 217.703 320.181 217.703 324.103Z" fill="#D3D3D3"/>
<path d="M217.703 359.407C217.703 363.329 214.761 366.271 210.839 366.271H64.7226C60.8 366.271 57.8581 363.329 57.8581 359.407C58.8387 355.484 61.7807 352.542 64.7226 352.542H210.839C214.761 352.542 217.703 355.484 217.703 359.407Z" fill="#D3D3D3"/>
<path d="M189.265 394.71C189.265 398.632 186.323 401.574 182.4 401.574H64.7226C61.7807 401.574 58.8387 398.632 58.8387 394.71C58.8387 390.787 61.7807 387.845 65.7033 387.845H183.381C186.323 388.826 189.265 391.768 189.265 394.71Z" fill="#D3D3D3"/>
<path d="M441.29 441.781C481.91 441.781 514.839 408.852 514.839 368.232C514.839 327.613 481.91 294.684 441.29 294.684C400.671 294.684 367.742 327.613 367.742 368.232C367.742 408.852 400.671 441.781 441.29 441.781Z" fill="#FFBC00"/>
<path d="M441.29 294.684C404.026 294.684 373.626 322.142 367.742 357.445L486.4 427.071C504.052 413.342 514.839 392.748 514.839 368.232C515.819 327.045 482.477 294.684 441.29 294.684Z" fill="#FFAA00"/>
<path d="M441.29 294.684C482.477 294.684 514.839 328.026 514.839 368.232C514.839 408.439 481.497 441.781 441.29 441.781" fill="#F7B208"/>
<path d="M500.129 441.781C540.749 441.781 573.677 408.852 573.677 368.232C573.677 327.613 540.749 294.684 500.129 294.684C459.509 294.684 426.581 327.613 426.581 368.232C426.581 408.852 459.509 441.781 500.129 441.781Z" fill="#F20A41"/>
<path d="M500.129 441.781C540.749 441.781 573.677 408.852 573.677 368.232C573.677 327.613 540.749 294.684 500.129 294.684C459.509 294.684 426.581 327.613 426.581 368.232C426.581 408.852 459.509 441.781 500.129 441.781Z" fill="#F20A41"/>
<path d="M500.129 442.761C458.942 442.761 426.581 409.419 426.581 369.213C426.581 329.007 459.923 295.665 500.129 295.665" fill="#E00040"/>
<path d="M470.71 300.568C444.232 312.335 426.581 337.832 426.581 368.232C426.581 398.632 445.213 425.11 470.71 435.897C497.187 424.129 514.839 398.632 514.839 368.232C514.839 337.832 497.187 311.355 470.71 300.568Z" fill="#F97803"/>
<path d="M469.71 438.897C496.187 427.129 513.839 401.632 513.839 371.232C513.839 340.832 495.206 314.355 469.71 303.568" fill="#F76806"/>
</g>
<defs>
<clipPath id="clip0_47_3">
<rect width="608" height="608" fill="white"/>
</clipPath>
</defs>
</svg>
