<?xml version="1.0" encoding="UTF-8"?>
<svg id="Layer_2" data-name="Layer 2" xmlns="http://www.w3.org/2000/svg" viewBox="0 0 250 85.11">
  <defs>
    <style>
      .cls-1 {
        fill: #474748;
      }

      .cls-2 {
        fill: #971c2f;
      }
    </style>
  </defs>
  <g id="Layer_2-2" data-name="Layer 2">
    <g>
      <path class="cls-2" d="M24.21,0l4.87.52c3.77.48,13.82,3.04,13.82,8.87v6.73c6.51-.94,13.41-.97,19.83.75,3.07.82,9.2,3.06,9.73,7.36l.04,36.03c-.43,5.48-8.54,7.79-12.3,8.5-2.45.47-4.92.63-7.39.88v5.73c0,2.49-1.92,4.45-3.59,5.6-8.06,5.52-28.06,5.55-36.05-.12-1.55-1.1-3.1-2.71-3.27-4.97-.32-4.17.2-9,.07-13.23.32-1.2.92-2.16,1.7-2.99l2.76-2.15c-5.02-1.07-12.29-1.99-14.44-8.31V8.64C1.11,4.69,4.9,2.93,8.04,1.88,11.36.76,14.9.25,18.35.17l.34-.17h5.52ZM20.79,3.87c-4.02.05-14.12,1.18-16.97,4.68-1.46,1.79,1.12,3.26,2.34,3.91,7.41,3.98,23.18,4.02,30.57-.03,2.01-1.1,4.17-2.49,1.44-4.63-4.07-3.18-12.55-4-17.38-3.94ZM3.26,15.13v6.07c0,1.45,3.04,2.98,4.03,3.41,5.75,2.5,13.34,2.85,19.4,2.16.96-.11,1.94-.34,2.89-.51-.28-6.08,5.85-8.06,9.85-9.27v-1.85c-2.14,1.44-4.55,2.33-6.97,2.94-6.95,1.76-15.91,1.77-22.83-.2-2.23-.63-4.33-1.54-6.37-2.74ZM47.13,19.5c-3.64.24-9.06,1.32-12.24,3.41-2.27,1.49-2.63,2.64-.23,4.32,7.02,4.92,24.59,4.72,31.9.61,2.05-1.15,3.93-2.58,1.23-4.6-4.95-3.72-14.9-4.13-20.66-3.74ZM29.6,30.25c-8.8,1.29-18.24,1.09-26.34-3.49v8.06c0,2.03,5.95,4.11,7.36,4.49,6.16,1.66,12.74,1.49,18.98.58v-9.64ZM69.25,30.58c-1.06.57-2.08,1.19-3.18,1.67-7.24,3.09-17.95,3.22-25.45,1.44-2.65-.63-5.25-1.57-7.62-3.11v6.57c0,.55,2.03,1.96,2.5,2.22,7.36,4.23,23.41,4.18,30.83.16.82-.45,2.92-1.68,2.92-2.89v-6.07ZM29.6,43.72c-5.91,1.14-12.12,1.06-18.01-.22-2.9-.63-5.75-1.6-8.33-3.27v8.06c0,1.56,3.48,3.18,4.56,3.62,5.03,2.05,12.01,2.58,17.31,2.11,1.49-.13,2.98-.48,4.46-.66v-9.64ZM69.25,42.22c-1.92,1.08-3.84,2-5.92,2.61-7.2,2.12-16.74,2.16-23.96.13-2.21-.62-4.37-1.48-6.37-2.74v6.4c0,.65,1.92,2.01,2.42,2.31,7.34,4.3,23.7,4.25,31.09.13.77-.43,2.74-1.65,2.74-2.77v-6.07ZM69.25,53.85c-6.29,3.7-13.45,4.2-20.39,4.24,2.64,1.41,4.28,4.04,3.97,7.56,4.08-.25,8.51-.68,12.36-2.37.98-.43,4.07-1.98,4.07-3.37v-6.07ZM29.28,58.06c-4.03.19-12.13,1.28-15.27,4.35-2.08,2.04.76,3.54,2.27,4.32,7.48,3.86,23.25,3.96,30.61-.29,2.27-1.31,3.7-2.6.91-4.63-4.45-3.24-13.37-3.98-18.53-3.75ZM49.42,69.65c-1.25.13-2.4,1.01-3.61,1.5-7.99,3.19-21.28,3.2-29.24-.09-1.17-.49-2.25-1.21-3.4-1.74v6.23c0,.76,1.63,1.94,2.17,2.27,7.31,4.54,24,4.42,31.44.28.55-.31,2.64-1.66,2.64-2.39v-6.07Z"/>
      <g>
        <g>
          <path class="cls-1" d="M97.73,23.34h-9.44v-5.56h25.7v5.56h-9.44v23.93h-6.83v-23.93Z"/>
          <path class="cls-1" d="M130.76,24.27v6.07c-.55-.04-.97-.08-1.47-.08-3.62,0-6.03,1.98-6.03,6.32v10.7h-6.57v-22.67h6.28v2.99c1.6-2.19,4.3-3.33,7.8-3.33Z"/>
          <path class="cls-1" d="M154.61,34.34v12.94h-6.15v-2.82c-1.22,2.06-3.58,3.16-6.91,3.16-5.31,0-8.47-2.95-8.47-6.87s2.82-6.78,9.73-6.78h5.22c0-2.82-1.69-4.47-5.22-4.47-2.4,0-4.89.8-6.53,2.11l-2.36-4.59c2.49-1.77,6.15-2.74,9.78-2.74,6.91,0,10.91,3.2,10.91,10.07ZM148.04,40.11v-2.32h-4.51c-3.08,0-4.04,1.14-4.04,2.65,0,1.64,1.39,2.74,3.71,2.74,2.19,0,4.09-1.01,4.85-3.08Z"/>
          <path class="cls-1" d="M159.12,35.94c0-6.83,5.27-11.67,12.64-11.67,4.76,0,8.51,2.06,10.16,5.77l-5.1,2.74c-1.22-2.15-3.03-3.12-5.1-3.12-3.33,0-5.94,2.32-5.94,6.28s2.61,6.28,5.94,6.28c2.06,0,3.88-.93,5.1-3.12l5.1,2.78c-1.64,3.62-5.39,5.73-10.16,5.73-7.37,0-12.64-4.85-12.64-11.67Z"/>
          <path class="cls-1" d="M195.27,38.38l-3.16,3.12v5.77h-6.57v-31.27h6.57v17.7l9.61-9.1h7.84l-9.44,9.61,10.28,13.06h-7.96l-7.16-8.89Z"/>
          <path class="cls-2" d="M213.81,17.78h6.83v29.5h-6.83v-29.5Z"/>
          <path class="cls-2" d="M233.73,23.34h-9.44v-5.56h25.7v5.56h-9.44v23.93h-6.83v-23.93Z"/>
        </g>
        <g>
          <path class="cls-2" d="M96.34,62.34v1.67h-6.98v-9.01h6.81v1.67h-4.74v1.96h4.18v1.62h-4.18v2.09h4.91Z"/>
          <path class="cls-2" d="M104.67,57.08l-2.92,6.93h-2.07l-2.91-6.93h2.07l1.92,4.71,1.98-4.71h1.93Z"/>
          <path class="cls-2" d="M112.04,61.11h-5.24c.19.86.93,1.39,1.98,1.39.73,0,1.26-.22,1.74-.67l1.07,1.16c-.64.73-1.61,1.12-2.86,1.12-2.39,0-3.95-1.51-3.95-3.57s1.58-3.57,3.7-3.57,3.61,1.36,3.61,3.59c0,.15-.03.37-.04.54ZM106.78,59.94h3.41c-.14-.88-.8-1.44-1.7-1.44s-1.57.55-1.71,1.44Z"/>
          <path class="cls-2" d="M117.72,56.98v1.85c-.17-.01-.3-.03-.45-.03-1.11,0-1.84.61-1.84,1.93v3.27h-2.01v-6.93h1.92v.91c.49-.67,1.31-1.02,2.38-1.02Z"/>
          <path class="cls-2" d="M126.04,57.08l-3.13,7.35c-.67,1.67-1.62,2.18-2.87,2.18-.71,0-1.48-.23-1.93-.63l.73-1.43c.31.27.73.44,1.13.44.55,0,.86-.24,1.13-.86l.03-.06-3-6.98h2.07l1.94,4.7,1.96-4.7h1.93Z"/>
          <path class="cls-2" d="M138.05,60.55c0,2.18-1.51,3.57-3.45,3.57-.86,0-1.57-.27-2.09-.84v3.23h-2.01v-9.43h1.92v.8c.5-.61,1.25-.9,2.18-.9,1.94,0,3.45,1.39,3.45,3.57ZM136.01,60.55c0-1.2-.76-1.92-1.76-1.92s-1.76.72-1.76,1.92.76,1.92,1.76,1.92,1.76-.72,1.76-1.92Z"/>
          <path class="cls-2" d="M146.13,61.11h-5.24c.19.86.93,1.39,1.98,1.39.73,0,1.26-.22,1.74-.67l1.07,1.16c-.64.73-1.61,1.12-2.86,1.12-2.4,0-3.95-1.51-3.95-3.57s1.58-3.57,3.7-3.57,3.61,1.36,3.61,3.59c0,.15-.03.37-.04.54ZM140.87,59.94h3.41c-.14-.88-.8-1.44-1.7-1.44s-1.57.55-1.71,1.44Z"/>
          <path class="cls-2" d="M154.59,60.05v3.97h-2.01v-3.66c0-1.12-.51-1.63-1.4-1.63-.97,0-1.66.59-1.66,1.87v3.42h-2.01v-6.93h1.92v.81c.54-.59,1.35-.91,2.29-.91,1.63,0,2.87.95,2.87,3.06Z"/>
          <path class="cls-2" d="M163.49,60.05v3.97h-2.01v-3.66c0-1.12-.51-1.63-1.4-1.63-.97,0-1.66.59-1.66,1.87v3.42h-2.01v-6.93h1.92v.81c.54-.59,1.35-.91,2.29-.91,1.63,0,2.87.95,2.87,3.06Z"/>
          <path class="cls-2" d="M172.05,57.08l-3.13,7.35c-.67,1.67-1.62,2.18-2.87,2.18-.71,0-1.48-.23-1.93-.63l.73-1.43c.31.27.73.44,1.13.44.55,0,.86-.24,1.13-.86l.03-.06-3-6.98h2.07l1.94,4.7,1.96-4.7h1.93Z"/>
          <path class="cls-2" d="M176,60.55c0-2.09,1.61-3.57,3.86-3.57,1.45,0,2.6.63,3.1,1.76l-1.56.84c-.37-.66-.93-.95-1.56-.95-1.02,0-1.82.71-1.82,1.92s.8,1.92,1.82,1.92c.63,0,1.18-.28,1.56-.95l1.56.85c-.5,1.11-1.65,1.75-3.1,1.75-2.25,0-3.86-1.48-3.86-3.57Z"/>
          <path class="cls-2" d="M183.52,60.55c0-2.09,1.61-3.57,3.81-3.57s3.8,1.48,3.8,3.57-1.6,3.57-3.8,3.57-3.81-1.48-3.81-3.57ZM189.09,60.55c0-1.2-.76-1.92-1.76-1.92s-1.78.72-1.78,1.92.77,1.92,1.78,1.92,1.76-.72,1.76-1.92Z"/>
          <path class="cls-2" d="M199.45,57.08v6.93h-1.91v-.82c-.53.61-1.3.93-2.15.93-1.74,0-2.96-.98-2.96-3.12v-3.91h2.01v3.62c0,1.16.51,1.67,1.4,1.67s1.6-.59,1.6-1.87v-3.43h2.01Z"/>
          <path class="cls-2" d="M208.39,60.05v3.97h-2.01v-3.66c0-1.12-.52-1.63-1.4-1.63-.97,0-1.66.59-1.66,1.87v3.42h-2.01v-6.93h1.92v.81c.54-.59,1.35-.91,2.29-.91,1.63,0,2.87.95,2.87,3.06Z"/>
          <path class="cls-2" d="M214.68,63.68c-.41.3-1.02.44-1.64.44-1.63,0-2.59-.84-2.59-2.48v-2.85h-1.07v-1.54h1.07v-1.69h2.01v1.69h1.73v1.54h-1.73v2.82c0,.59.32.91.86.91.3,0,.59-.09.81-.26l.54,1.42Z"/>
          <path class="cls-2" d="M215.14,63.37l.67-1.44c.62.4,1.56.67,2.41.67.93,0,1.27-.25,1.27-.63,0-1.13-4.18.03-4.18-2.74,0-1.31,1.18-2.24,3.21-2.24.95,0,2.01.22,2.67.61l-.67,1.43c-.68-.39-1.36-.51-2-.51-.9,0-1.29.28-1.29.64,0,1.18,4.18.04,4.18,2.77,0,1.29-1.2,2.2-3.27,2.2-1.17,0-2.36-.32-3-.75Z"/>
          <path class="cls-2" d="M222.15,62.85c0-.75.55-1.24,1.25-1.24s1.25.49,1.25,1.24-.55,1.26-1.25,1.26-1.25-.53-1.25-1.26Z"/>
        </g>
      </g>
    </g>
  </g>
</svg>