<?xml version="1.0" encoding="UTF-8"?>
<svg id="Layer_2" data-name="Layer 2" xmlns="http://www.w3.org/2000/svg" viewBox="0 0 250 78.23">
  <defs>
    <style>
      .cls-1 {
        fill: #474748;
      }

      .cls-2 {
        fill: #971c2f;
      }
    </style>
  </defs>
  <g id="Layer_2-2" data-name="Layer 2">
    <g>
      <g>
        <path class="cls-1" d="M14.59,11.34H0V2.74h39.74v8.6h-14.59v37h-10.55V11.34Z"/>
        <path class="cls-1" d="M65.66,12.77v9.38c-.85-.07-1.5-.13-2.28-.13-5.6,0-9.32,3.06-9.32,9.77v16.55h-10.16V13.29h9.71v4.63c2.48-3.39,6.64-5.15,12.05-5.15Z"/>
        <path class="cls-1" d="M102.53,28.34v20h-9.51v-4.36c-1.89,3.19-5.54,4.89-10.68,4.89-8.21,0-13.09-4.56-13.09-10.62s4.36-10.49,15.05-10.49h8.08c0-4.36-2.61-6.91-8.08-6.91-3.71,0-7.56,1.24-10.1,3.26l-3.65-7.1c3.84-2.74,9.51-4.23,15.11-4.23,10.68,0,16.87,4.95,16.87,15.57ZM92.37,37.26v-3.58h-6.97c-4.75,0-6.25,1.76-6.25,4.1,0,2.54,2.15,4.23,5.73,4.23,3.39,0,6.32-1.56,7.49-4.76Z"/>
        <path class="cls-1" d="M109.5,30.81c0-10.55,8.14-18.04,19.54-18.04,7.36,0,13.16,3.19,15.7,8.92l-7.88,4.23c-1.89-3.32-4.69-4.82-7.88-4.82-5.15,0-9.18,3.58-9.18,9.71s4.04,9.71,9.18,9.71c3.19,0,5.99-1.43,7.88-4.82l7.88,4.3c-2.54,5.6-8.34,8.86-15.7,8.86-11.4,0-19.54-7.49-19.54-18.04Z"/>
        <path class="cls-1" d="M165.39,34.59l-4.89,4.82v8.92h-10.16V0h10.16v27.36l14.85-14.07h12.12l-14.59,14.85,15.89,20.19h-12.31l-11.07-13.75Z"/>
        <path class="cls-2" d="M194.04,2.74h10.55v45.6h-10.55V2.74Z"/>
        <path class="cls-2" d="M224.85,11.34h-14.59V2.74h39.74v8.6h-14.59v37h-10.55V11.34Z"/>
      </g>
      <g>
        <path class="cls-2" d="M12.44,71.62v2.59H1.65v-13.93h10.53v2.59h-7.33v3.03h6.47v2.51h-6.47v3.22h7.58Z"/>
        <path class="cls-2" d="M25.32,63.5l-4.52,10.71h-3.2l-4.5-10.71h3.21l2.97,7.29,3.07-7.29h2.99Z"/>
        <path class="cls-2" d="M36.72,69.73h-8.1c.3,1.33,1.43,2.15,3.07,2.15,1.13,0,1.95-.34,2.69-1.04l1.65,1.79c-1,1.13-2.49,1.73-4.42,1.73-3.7,0-6.11-2.33-6.11-5.51s2.45-5.51,5.71-5.51,5.57,2.11,5.57,5.55c0,.24-.04.58-.06.84ZM28.58,67.92h5.27c-.22-1.35-1.23-2.23-2.63-2.23s-2.43.86-2.65,2.23Z"/>
        <path class="cls-2" d="M45.5,63.34v2.87c-.26-.02-.46-.04-.7-.04-1.71,0-2.85.94-2.85,2.99v5.06h-3.11v-10.71h2.97v1.41c.76-1.04,2.03-1.57,3.68-1.57Z"/>
        <path class="cls-2" d="M58.36,63.5l-4.84,11.37c-1.04,2.59-2.51,3.36-4.44,3.36-1.1,0-2.29-.36-2.99-.98l1.13-2.21c.48.42,1.13.68,1.75.68.86,0,1.33-.38,1.75-1.33l.04-.1-4.64-10.79h3.2l3.01,7.27,3.03-7.27h2.99Z"/>
        <path class="cls-2" d="M76.93,68.85c0,3.36-2.33,5.51-5.33,5.51-1.33,0-2.43-.42-3.22-1.29v5h-3.11v-14.57h2.97v1.23c.78-.94,1.93-1.39,3.36-1.39,3.01,0,5.33,2.15,5.33,5.51ZM73.78,68.85c0-1.85-1.17-2.97-2.73-2.97s-2.73,1.11-2.73,2.97,1.17,2.97,2.73,2.97,2.73-1.11,2.73-2.97Z"/>
        <path class="cls-2" d="M89.43,69.73h-8.1c.3,1.33,1.43,2.15,3.07,2.15,1.13,0,1.95-.34,2.69-1.04l1.65,1.79c-1,1.13-2.49,1.73-4.42,1.73-3.7,0-6.11-2.33-6.11-5.51s2.45-5.51,5.71-5.51,5.57,2.11,5.57,5.55c0,.24-.04.58-.06.84ZM81.28,67.92h5.28c-.22-1.35-1.24-2.23-2.63-2.23s-2.43.86-2.65,2.23Z"/>
        <path class="cls-2" d="M102.5,68.08v6.13h-3.11v-5.65c0-1.73-.8-2.53-2.17-2.53-1.49,0-2.57.92-2.57,2.89v5.29h-3.11v-10.71h2.97v1.25c.84-.92,2.09-1.41,3.54-1.41,2.53,0,4.44,1.47,4.44,4.74Z"/>
        <path class="cls-2" d="M116.26,68.08v6.13h-3.11v-5.65c0-1.73-.8-2.53-2.17-2.53-1.49,0-2.57.92-2.57,2.89v5.29h-3.1v-10.71h2.97v1.25c.84-.92,2.09-1.41,3.54-1.41,2.53,0,4.44,1.47,4.44,4.74Z"/>
        <path class="cls-2" d="M129.49,63.5l-4.84,11.37c-1.04,2.59-2.51,3.36-4.44,3.36-1.09,0-2.29-.36-2.99-.98l1.13-2.21c.48.42,1.13.68,1.75.68.86,0,1.33-.38,1.75-1.33l.04-.1-4.64-10.79h3.2l3.01,7.27,3.03-7.27h2.99Z"/>
        <path class="cls-2" d="M135.6,68.85c0-3.22,2.49-5.51,5.97-5.51,2.25,0,4.02.98,4.8,2.73l-2.41,1.29c-.58-1.02-1.43-1.47-2.41-1.47-1.57,0-2.81,1.09-2.81,2.97s1.23,2.97,2.81,2.97c.98,0,1.83-.44,2.41-1.47l2.41,1.31c-.78,1.71-2.55,2.71-4.8,2.71-3.48,0-5.97-2.29-5.97-5.51Z"/>
        <path class="cls-2" d="M147.22,68.85c0-3.22,2.49-5.51,5.89-5.51s5.87,2.29,5.87,5.51-2.47,5.51-5.87,5.51-5.89-2.29-5.89-5.51ZM155.84,68.85c0-1.85-1.17-2.97-2.73-2.97s-2.75,1.11-2.75,2.97,1.19,2.97,2.75,2.97,2.73-1.11,2.73-2.97Z"/>
        <path class="cls-2" d="M171.84,63.5v10.71h-2.95v-1.27c-.82.94-2.01,1.43-3.32,1.43-2.69,0-4.58-1.51-4.58-4.82v-6.05h3.11v5.59c0,1.79.8,2.59,2.17,2.59s2.47-.92,2.47-2.89v-5.3h3.11Z"/>
        <path class="cls-2" d="M185.68,68.08v6.13h-3.1v-5.65c0-1.73-.8-2.53-2.17-2.53-1.49,0-2.57.92-2.57,2.89v5.29h-3.11v-10.71h2.97v1.25c.84-.92,2.09-1.41,3.54-1.41,2.53,0,4.44,1.47,4.44,4.74Z"/>
        <path class="cls-2" d="M195.39,73.69c-.64.46-1.57.68-2.53.68-2.53,0-4-1.29-4-3.84v-4.4h-1.65v-2.39h1.65v-2.61h3.11v2.61h2.67v2.39h-2.67v4.36c0,.92.5,1.41,1.33,1.41.46,0,.92-.14,1.25-.4l.84,2.19Z"/>
        <path class="cls-2" d="M196.1,73.21l1.03-2.23c.96.62,2.41,1.04,3.72,1.04,1.43,0,1.97-.38,1.97-.98,0-1.75-6.47.04-6.47-4.24,0-2.03,1.83-3.46,4.96-3.46,1.47,0,3.11.34,4.12.94l-1.04,2.21c-1.05-.6-2.11-.8-3.09-.8-1.39,0-1.99.44-1.99.99,0,1.83,6.47.06,6.47,4.28,0,1.99-1.85,3.4-5.06,3.4-1.81,0-3.64-.5-4.64-1.15Z"/>
        <path class="cls-2" d="M206.95,72.42c0-1.15.86-1.91,1.93-1.91s1.93.76,1.93,1.91-.86,1.95-1.93,1.95-1.93-.82-1.93-1.95Z"/>
      </g>
    </g>
  </g>
</svg>