<?xml version="1.0" encoding="UTF-8"?>
<svg id="Layer_2" data-name="Layer 2" xmlns="http://www.w3.org/2000/svg" viewBox="0 0 250 293.45">
  <defs>
    <style>
      .cls-1 {
        fill: #971c2f;
      }
    </style>
  </defs>
  <g id="Layer_2-2" data-name="Layer 2">
    <path class="cls-1" d="M83.49,0l16.78,1.79c12.99,1.65,47.66,10.49,47.66,30.59v23.21c22.44-3.25,46.22-3.36,68.36,2.57,10.57,2.83,31.73,10.56,33.56,25.37l.15,124.24c-1.48,18.91-29.45,26.84-42.4,29.31-8.45,1.61-16.96,2.16-25.48,3.04v19.77c0,8.58-6.61,15.36-12.37,19.3-27.78,19.02-96.74,19.12-124.3-.43-5.33-3.78-10.68-9.34-11.29-17.12-1.12-14.37.7-31.02.24-45.62,1.11-4.13,3.17-7.44,5.87-10.3l9.53-7.43c-17.31-3.7-42.37-6.85-49.8-28.66V29.8C3.82,16.16,16.9,10.1,27.72,6.47,39.16,2.63,51.36.86,63.27.6l1.18-.6h19.04ZM71.67,13.35c-13.88.18-48.68,4.06-58.5,16.14-5.03,6.19,3.85,11.23,8.07,13.5,25.54,13.72,79.93,13.87,105.4-.09,6.93-3.8,14.39-8.6,4.96-15.98-14.02-10.98-43.28-13.78-59.92-13.57ZM11.23,52.15v20.92c0,5.01,10.47,10.26,13.91,11.76,19.81,8.63,45.98,9.83,66.89,7.43,3.31-.38,6.68-1.16,9.96-1.77-.96-20.98,20.15-27.8,33.94-31.97l.04-6.37c-7.41,4.98-15.73,8.02-24.08,10.14-23.97,6.08-54.85,6.09-78.71-.67-7.68-2.18-14.92-5.3-21.96-9.46ZM162.48,67.22c-12.56.84-31.23,4.54-42.22,11.77-7.83,5.15-9.07,9.09-.8,14.89,24.21,16.98,84.78,16.28,110,2.11,7.07-3.97,13.55-8.89,4.25-15.86-17.08-12.82-51.37-14.23-71.23-12.9ZM102.04,104.3c-30.33,4.45-62.89,3.77-90.81-12.04v27.8c0,6.99,20.52,14.18,25.37,15.49,21.25,5.74,43.92,5.15,65.44,1.99v-33.24ZM238.75,105.45c-3.66,1.95-7.18,4.12-10.98,5.74-24.95,10.64-61.88,11.11-87.74,4.97-9.15-2.17-18.1-5.4-26.27-10.71v22.64c0,1.89,7,6.75,8.6,7.67,25.39,14.57,80.7,14.43,106.31.56,2.84-1.54,10.08-5.78,10.08-9.95v-20.92ZM102.04,150.73c-20.37,3.92-41.79,3.65-62.1-.75-9.98-2.17-19.81-5.51-28.72-11.28v27.8c0,5.39,11.99,10.95,15.74,12.48,17.36,7.08,41.42,8.91,59.69,7.29,5.13-.46,10.27-1.64,15.38-2.29v-33.24ZM238.75,145.57c-6.63,3.71-13.25,6.9-20.4,9-24.84,7.32-57.73,7.45-82.62.46-7.62-2.14-15.07-5.09-21.96-9.46v22.06c0,2.25,6.63,6.94,8.36,7.95,25.3,14.83,81.7,14.64,107.19.46,2.65-1.47,9.44-5.7,9.44-9.55v-20.92ZM238.75,185.68c-21.68,12.77-46.39,14.49-70.31,14.61,9.1,4.85,14.77,13.94,13.67,26.08,14.07-.86,29.33-2.34,42.61-8.16,3.37-1.48,14.03-6.84,14.03-11.61v-20.92ZM100.97,200.18c-13.91.64-41.81,4.42-52.64,15-7.19,7.02,2.61,12.19,7.84,14.9,25.79,13.32,80.17,13.65,105.55-1.01,7.84-4.53,12.76-8.97,3.15-15.98-15.33-11.18-46.09-13.74-63.9-12.92ZM170.4,240.13c-4.3.45-8.26,3.5-12.44,5.17-27.53,11.02-73.37,11.05-100.81-.32-4.05-1.68-7.76-4.17-11.74-5.99v21.49c0,2.63,5.63,6.68,7.49,7.83,25.2,15.66,82.74,15.24,108.4.97,1.89-1.05,9.1-5.72,9.1-8.23v-20.92Z"/>
  </g>
</svg>